<?xml version="1.0" encoding="UTF-8"?>
<svg width="31px" height="31px" viewBox="0 0 31 31" version="1.1" xmlns="http://www.w3.org/2000/svg" xmlns:xlink="http://www.w3.org/1999/xlink">
    <!-- Generator: Sketch 47.1 (45422) - http://www.bohemiancoding.com/sketch -->
    <title>Artboard 2</title>
    <desc>Created with Sketch.</desc>
    <defs></defs>
    <g id="Page-1" stroke="none" stroke-width="1" fill="none" fill-rule="evenodd">
        <g id="Artboard-2">
            <g id="Group-2" transform="translate(1.000000, 1.000000)">
                <circle id="Oval" stroke="#E74C3C" fill="#E74C3C" cx="14.5" cy="14.5" r="14.5"></circle>
                <g id="Group" transform="translate(7.000000, 7.000000)" fill-rule="nonzero">
                    <path d="M1.10305466,8.54903226 L6.47401929,8.54903226 L6.47401929,13.937371 C6.47401929,14.5097903 6.93655949,14.9738226 7.50713826,14.9738226 C8.07776527,14.9738226 8.54025723,14.5097903 8.54025723,13.937371 L8.54025723,8.54903226 L13.9111736,8.54903226 C14.4817524,8.54903226 14.9442926,8.085 14.9442926,7.51258065 C14.9442926,6.94016129 14.4817524,6.47612903 13.9111736,6.47612903 L8.54025723,6.47612903 L8.54025723,1.08779032 C8.54025723,0.515370968 8.07771704,0.0513387097 7.50713826,0.0513387097 C6.93655949,0.0513387097 6.47401929,0.515370968 6.47401929,1.08779032 L6.47401929,6.47612903 L1.10305466,6.47612903 C0.532475884,6.47612903 0.0699356913,6.94016129 0.0699356913,7.51258065 C0.0699356913,8.085 0.532475884,8.54903226 1.10305466,8.54903226 Z" id="Shape" fill="#FFFFFF"></path>
                    <path d="M7.50713826,14.9980161 C6.92416399,14.9980161 6.44990354,14.5222258 6.44990354,13.937371 L6.44990354,8.57322581 L1.10305466,8.57322581 C0.520080386,8.57322581 0.0458199357,8.09743548 0.0458199357,7.51258065 C0.0458199357,6.92772581 0.520080386,6.45193548 1.10305466,6.45193548 L6.44990354,6.45193548 L6.44990354,1.08779032 C6.44990354,0.502935484 6.92416399,0.0271451613 7.50713826,0.0271451613 C8.09011254,0.0271451613 8.56437299,0.502935484 8.56437299,1.08779032 L8.56437299,6.45193548 L13.9111736,6.45193548 C14.4941479,6.45193548 14.9684084,6.92772581 14.9684084,7.51258065 C14.9684084,8.09743548 14.4941479,8.57322581 13.9111736,8.57322581 L8.56437299,8.57322581 L8.56437299,13.937371 C8.56437299,14.5222258 8.09011254,14.9980161 7.50713826,14.9980161 Z M1.10305466,6.50032258 C0.54670418,6.50032258 0.0940514469,6.95443548 0.0940514469,7.51258065 C0.0940514469,8.07072581 0.54670418,8.52483871 1.10305466,8.52483871 L6.49813505,8.52483871 L6.49813505,13.937371 C6.49813505,14.4955161 6.95078778,14.949629 7.50713826,14.949629 C8.06353698,14.949629 8.51614148,14.4955161 8.51614148,13.937371 L8.51614148,8.52483871 L13.9111736,8.52483871 C14.4675241,8.52483871 14.9201768,8.07072581 14.9201768,7.51258065 C14.9201768,6.95443548 14.4675241,6.50032258 13.9111736,6.50032258 L8.51614148,6.50032258 L8.51614148,1.08779032 C8.51614148,0.529645161 8.06348875,0.0755322581 7.50713826,0.0755322581 C6.95078778,0.0755322581 6.49813505,0.529645161 6.49813505,1.08779032 L6.49813505,6.50032258 L1.10305466,6.50032258 Z" id="Shape" fill="#E74C3C"></path>
                </g>
            </g>
        </g>
    </g>
</svg>